<svg xmlns="http://www.w3.org/2000/svg" xmlns:xlink="http://www.w3.org/1999/xlink" viewBox="0 0 1742.226 3953.219" width="3484.451" height="7906.438" xmlns:v="https://vecta.io/nano"><style><![CDATA[.B{direction:ltr}.C{font-size:20px}.D{fill:#000}.E{font-family:Virgil, Segoe UI Emoji}.F{font-family:Cascadia, Segoe UI Emoji}.G{fill:none}.H{stroke-linecap:round}.I{text-anchor:middle}.J{stroke:#000}.K{fill-rule:evenodd}.L{fill:#862e9c}.M{fill:#c92a2a}.N{stroke-width:2}.O{font-size:28px}.P{fill:#2b8a3e}.Q{fill:#1864ab}.R{font-size:16px}.S{stroke-width:2.5}.T{stroke-dasharray:1.5 8}.U{fill:#495057}.V{stroke:#2b8a3e}.W{stroke:#495057}.X{stroke:#c92a2a}.Y{stroke:#862e9c}]]></style><defs><style>@font-face{font-family:"Virgil";src:url("https://excalidraw.com/Virgil.woff2")} @font-face{font-family:"Cascadia";src:url("https://excalidraw.com/Cascadia.woff2")} @font-face{font-family:"Virgil";src:url("https://excalidraw.com/Virgil.woff2")} @font-face{font-family:"Cascadia";src:url("https://excalidraw.com/Cascadia.woff2")}</style><path id="A" d="M588.535 2765.822h7.39m0 0c2.46 0 3.69 1.23 3.69 3.69m0 0v16.25m0 0c0 2.47-1.23 3.7-3.69 3.7m0 0h-7.39m0 0c-2.46 0-3.69-1.23-3.69-3.7m0 0v-16.25m0 0c0-2.46 1.23-3.69 3.69-3.69"/></defs><path fill="#fff" d="M0 0h1742.226v3953.219H0z"/><text y="2309.449" style="white-space:pre" x="486.366" class="B C E Q">K-hash</text><text y="2010.029" style="white-space:pre" x="399.755" class="B C E M">userid</text><g transform="matrix(1 0 0 1 548.421236 2050.084302)" class="B C D F"><text y="19.556" style="white-space:pre" x="0">01010110</text><text y="68.667" style="white-space:pre" x="0">10111100</text><text y="117.778" style="white-space:pre" x="0">00001011</text><text y="166.889" style="white-space:pre" x="0">01010110</text><text y="216" style="white-space:pre" x="0">10011110</text></g><g transform="matrix(1 0 0 1 915.226792 2054.862079)" class="B C D F"><text y="19.556" style="white-space:pre" x="0">max(r[01], 1) = 1</text><text y="68.667" style="white-space:pre" x="0">max(r[10], 0) = 0</text><text y="117.778" style="white-space:pre" x="0">max(r[00], 2) = 2</text><text y="166.889" style="white-space:pre" x="0">max(r[01], 1) = 1</text><text y="216" style="white-space:pre" x="0">max(r[10], 1) = 1</text></g><g transform="matrix(1 0 0 1 739.449014 2054.334302)" class="B C D F"><text y="19.556" style="white-space:pre" x="0">(01, 1)</text><text y="68.667" style="white-space:pre" x="0">(10, 0)</text><text y="117.778" style="white-space:pre" x="0">(00, 2)</text><text y="166.889" style="white-space:pre" x="0">(01, 1)</text><text y="216" style="white-space:pre" x="0">(10, 1)</text></g><text y="2710.008" style="white-space:pre" x="648.138" class="B C D F">4 ^2</text><path d="M558.638 2723.092h207m-207 0h207" class="G H J N"/><text y="2747.342" style="white-space:pre" x="576.138" class="B C D F">1</text><path d="M563.472 2761.092h35.17m-35.17 0h35.17" class="G H J N"/><text y="2784.008" style="white-space:pre" x="562.805" class="B C D F">2^2</text><text y="2769.092" style="white-space:pre" x="605.638" class="B C D F">+</text><text y="2748.842" style="white-space:pre" x="631.638" class="B C D F">1</text><path d="M623.138 2761.342h31m-31 0h31" class="G H J N"/><text y="2786.342" style="white-space:pre" x="622.138" class="B C D F">2^1</text><text y="2748.842" style="white-space:pre" x="684.638" class="B C D F">1</text><path d="M676.138 2761.342h31m-31 0h31" class="G H J N"/><text y="2786.342" style="white-space:pre" x="676.138" class="B C D F">2^1</text><text y="2748.842" style="white-space:pre" x="740.638" class="B C D F">1</text><path d="M732.138 2761.342h31m-31 0h31" class="G H J N"/><text y="2768.592" style="white-space:pre" x="659.138" class="B C D F">+</text><text y="2767.592" style="white-space:pre" x="711.138" class="B C D F">+</text><text y="2785.734" style="white-space:pre" x="729.138" class="B C D F">2^0</text><text y="2729.984" style="white-space:pre" x="779.638" class="B C D F">=</text><text y="2711.109" style="white-space:pre" x="824.388" class="B C D F">16</text><path d="M802.388 2722.109h69.5m-69.5 0h69.5" class="G H J N"/><text y="2746.359" style="white-space:pre" x="814.888" class="B C D F">2,25</text><text y="2731.984" style="white-space:pre" x="880.638" class="B C D F">=</text><text y="2730.734" style="white-space:pre" x="900.888" class="B C D F">7,1</text><text y="2730.734" style="white-space:pre" x="1040.888" class="B C D F">6</text><text y="2013.727" style="white-space:pre" x="550.671" class="B C E M">K-hash id</text><g transform="matrix(1 0 0 1 710.532347 1986.866048)" class="B C E M"><text y="18.5" style="white-space:pre" x="0">(registerKey, </text><text y="44" style="white-space:pre" x="0">maxLeading0)</text></g><g transform="matrix(1 0 0 1 1226.289923 1990.031485)" class="B C E I M"><text x="38" y="18.5" style="white-space:pre">registre</text><text x="38" y="44" style="white-space:pre">ciblé</text></g><g transform="matrix(1 0 0 1 1476.754855 1990.599364)" class="B C E I M"><text x="51" y="18.5" style="white-space:pre">Estimation</text><text x="51" y="44" style="white-space:pre">brute</text></g><g transform="matrix(1 0 0 1 990.392081 2561.979022)" class="B C E I M"><text x="51" y="18.5" style="white-space:pre">Estimation</text><text x="51" y="44" style="white-space:pre">corrigée</text></g><path d="M652.747 2062.058l76.98-.91m-75.28-.18c13.15.01 65.04 1.43 77.63 1.4" class="G H J"/><path d="M732.617 2060.408l-14.72 9.61-1.2-12.24 13.51 4.74" class="K"/><path d="M731.977 2061.508c-4.36 2.71-6.16 3.11-13.45 7.06m13.38-6.38c-3.49 2.11-5.72 3.27-14.16 5.6m1.51 1.77c.12-5.34-1.73-6.19-1.55-13.36m.51 12.7c-.14-4.61-.05-9.8.42-13.48m.48 1.08c4.53-.21 5.94 2.3 13.1 5.62m-13.07-6.08c3.94 1.97 8.77 4.01 12.2 6.32m-79.59 49.906c12.98-.06 65.56 1.72 78.33 1.79m-76.5.23c12.92.15 63.16-1.73 76.03-1.81" class="G H J"/><path d="M731.257 2110.814l-13.88 9.55-1.01-14.18 15.21 6.83" class="K"/><path d="M728.197 2113.624c-.98-.38-6.46 2.37-13.22 5.4m15.22-7.04c-3.8 2.16-7.69 4.48-14.23 6.98m.63.73c-1.49-5.29-1.15-6.96-1.39-12.38m.52 12.37c-.2-5.23.64-10.26.04-13.4m-.74.78c5.93.43 10.36 2.61 14.71 5.95m-14.31-6.88c5.31 2.38 10.45 5.05 14.29 6.91m-.1-.57" class="G H J"/><text y="2307.977" style="white-space:pre" x="642.171" class="B C E Q">CalculTuple</text><text y="2304.727" style="white-space:pre" x="815.949" class="B C E Q">tri(Distinct)</text><text y="2304.227" style="white-space:pre" x="1125.81" class="B C E Q">mise à jour</text><g transform="matrix(1 0 0 1 1391.148594 2295.172917)" class="B C E Q"><text y="18.5" style="white-space:pre" x="0">Moyenne</text><text y="44" style="white-space:pre" x="0">harmonique</text></g><text y="2777.183" style="white-space:pre" x="1168.306" class="B C D E">Correction</text><path d="M950.014 2725.099c10.7-.37 52.14-.64 62.88-.56m-63.77 2.72l62.6-1.29" class="G H J"/><path d="M1010.834 2725.279l-12.55 5.72.12-11.62 14.38 8.55" class="K"/><path d="M1010.644 2725.459c-2.85 3.92-5.26 5.72-13.35 8.23m14.65-7.13c-3.45 1-7.24 2.84-12.89 6.46m-1.42.78a315.59 315.59 0 0 0 .36-14.22m.19 12.56c-.54-4.19-.46-8.15-.69-12.36m.06.98c5.29 1.35 9.12 1.56 14.91 6.56m-14.11-7.05c4.91 2.49 9.78 4.52 12.93 5.57m.44.13" class="G H J"/><text y="2450.184" style="white-space:pre" x="307.378" class="B E O Q">CalculTuple :</text><text y="2453.864" style="white-space:pre" x="534.425" class="B C D F">10001100</text><path d="M642.925 2440.614l95.5-22.75m-95.5 22.75l95.5-22.75" class="G H J N"/><path d="M738.425 2417.864l-11.76 9.32-2.93-12.34 14.69 3.02" class="K"/><path d="M738.425 2417.864l-11.76 9.32m11.76-9.32l-11.76 9.32m0 0l-2.93-12.34m2.93 12.34l-2.93-12.34m0 0l14.69 3.02m-14.69-3.02l14.69 3.02m0 0" class="G H J N"/><path d="M528.923 2427.056h28.57m0 0v37.86m0 0h-28.57m0 0v-37.86m28.785.929h74.29m0 0v36.43m0 0h-74.29m0 0v-36.43" class="G H J S T"/><text y="2421.199" style="white-space:pre" x="753.872" class="B C D F">registerKey: 10</text><path d="M643.744 2450.284l93.36 27.35m-93.36-27.35l93.36 27.35" class="G H J N"/><path d="M737.104 2477.634l-14.83 2.26 3.56-12.17 11.27 9.91" class="K"/><path d="M737.104 2477.634l-14.83 2.26m14.83-2.26l-14.83 2.26m0 0l3.56-12.17m-3.56 12.17l3.56-12.17m0 0l11.27 9.91m-11.27-9.91l11.27 9.91m0 0" class="G H J N"/><text y="2483.842" style="white-space:pre" x="750.018" class="B C D F">maxLeading0 = 001100 = 2</text><path d="M915.518 2490.342h22m-22 0h22" class="G H N X"/><path d="M1056.768 2411.092l88.5 23.5m-88.5-23.5l88.5 23.5" class="G H J N"/><path d="M1145.268 2434.592l-14.77 2.64 3.26-12.26 11.51 9.62" class="K"/><path d="M1145.268 2434.592l-14.77 2.64m14.77-2.64l-14.77 2.64m0 0l3.26-12.26m-3.26 12.26l3.26-12.26m0 0l11.51 9.62m-11.51-9.62l11.51 9.62m-85.5 39.5l86.5-22.5m-86.5 22.5l86.5-22.5" class="G H J N"/><path d="M1146.268 2451.592l-11.56 9.56-3.19-12.27 14.75 2.71" class="K"/><path d="M1146.268 2451.592l-11.56 9.56m11.56-9.56l-11.56 9.56m0 0l-3.19-12.27m3.19 12.27l-3.19-12.27m0 0l14.75 2.71m-14.75-2.71l14.75 2.71m0 0" class="G H J N"/><text y="2452.342" style="white-space:pre" x="1164.518" class="B C D F">(registerKey:10, maxLeading0:2)</text><path d="M643.582 2686.958h20.83m0 0v30m0 0h-20.83m0 0v-30" class="G H J S T"/><g transform="matrix(1 0 0 1 612.415542 2642.79176)" class="B E I R U"><text x="38" y="14.5" style="white-space:pre">nombre de</text><text x="38" y="35" style="white-space:pre">registres</text></g><use xlink:href="#A" class="G H S T W"/><text x="588.943" y="2814.148" style="white-space:pre" class="B F I R U">r[00]</text><use xlink:href="#A" x="59.783" y="1.26" class="G H S T W"/><text x="645.952" y="2814.318" style="white-space:pre" class="B F I R U">r[01]</text><g transform="matrix(1 0 0 1 1299.564486 2755.669079)" class="B D E R"><text y="14.5" style="white-space:pre" x="0">- coefficient alpha ≈ 0.7</text><text y="35" style="white-space:pre" x="0">- autres corrections, voir papier Flajolet </text></g><text x="219.736" y="232.707" style="white-space:pre" class="B D E I O">Le problème :</text><text x="759.909" y="42" font-size="36" style="white-space:pre" class="B D E I">Algorithme HyperLogLog</text><text x="193.522" y="155.065" style="white-space:pre" class="B D E I O">Pour quel besoin : </text><text y="157.136" style="white-space:pre" x="327.665" class="B C D E">Faire des Count Distinct.  ex : SELECT COUNT(DISTINCT userid) FROM TABLE;</text><text y="1793.672" style="white-space:pre" x="10" class="B D E O">Algorithme multiprocessing grâce aux sketches</text><g transform="matrix(1 0 0 1 353.715656 773.219079)" class="B C D E"><text y="17.625" style="white-space:pre" x="0">Lorsque l'on génère un binaire aléatoirement, la probabilité d'obtenir 0 est de 1/2. </text><text y="43.25" style="white-space:pre" x="0">Pour 2 binaires, la probabilité d'obtenir  00 est de 1/4.</text><text y="68.875" style="white-space:pre" x="0">Pour 3 binaires, la probabilité d'obtenir 000 est de 1/8.</text><text y="94.5" style="white-space:pre" x="0">Pour 4 binaires, la probabilité d'obtenir 0000 est de 1/16.</text><text y="145.75" style="white-space:pre" x="0">En simplifiant, il faut faire 16 tirages de 4 binaires chacun pour obtenir au moins une fois un tirage où l'on obtient 0001.</text><text y="171.375" style="white-space:pre" x="0">Observer un 000 permet d'estimer qu'il y a eu 8 résultats de tirages distincts.</text><text y="197" style="white-space:pre" x="0">Observer un 0000 permet d'estimer qu'il y a eu 16 résultats de tirages distincts. </text></g><text x="199.381" y="790.504" style="white-space:pre" class="B D E I O">Idée fondamentale :</text><g transform="matrix(1 0 0 1 330.153936 214.933625)" class="B C D E"><text y="18.5" style="white-space:pre" x="0">Nous souhaitons compter le nombre d'éléments distincts dans une liste.</text><text y="44" style="white-space:pre" x="0">Le premier réflexe est de construire une liste des éléments distincts lors du parcours de la première liste.</text><text y="69.5" style="white-space:pre" x="0">Puis de calculer la taille de la liste des éléments distincts.</text><text y="95" style="white-space:pre" x="0">C'est une solution déterministe et exacte, cependant très coûteuse en mémoire.</text></g><g transform="matrix(1 0 0 1 299.414952 1339.662432)" class="B C D E"><text y="17.667" style="white-space:pre" x="0">La solution HLL consiste à utiliser cette idée pour résoudre notre problème. Au lieu de stocker en mémoire la liste complète</text><text y="43.333" style="white-space:pre" x="0">des éléments distincts, on ne conservera que le nombre de zéros consécutifs de poids forts.</text><text y="69" style="white-space:pre" x="0">Algorithme :</text><text y="94.667" style="white-space:pre" x="0">    1. A partir d'une liste d'éléments de type String, Int ..., à chaque élément, on calcule le K-Hash qui donne une suite de binaires.</text><text y="120.333" style="white-space:pre" x="0">    2. Dans cette liste de binaires, on calcule le nombre maximum M de zéros de poids forts consécutifs.</text><text y="146" style="white-space:pre" x="0">    3. A partir de ce nombre, on calcule une estimation E du nombre d'éléments distincts dans la liste de départ : 2^M</text></g><text x="211.486" y="1357.948" style="white-space:pre" class="B D E I O">Solution :</text><text x="216.796" y="1555.078" style="white-space:pre" class="B D E I O">Exemple :</text><g transform="matrix(1 0 0 1 302.669035 1541.081758)" class="B C D E"><text y="17.667" style="white-space:pre" x="0">Dans la liste suivante, combien d'éléments distincts y a-t-il ?</text><text y="43.333" style="white-space:pre" x="0">[ Mehdy ; Nicolas ; Saïd ; Claude ; Mehdy ]</text><text y="69" style="white-space:pre" x="0">=&gt; [ 01001 ; 10001 ; 00101 ; 01010 ; 01001]</text><text y="94.667" style="white-space:pre" x="0">=&gt; [ 1 ; 0 ; 2 ; 1 ; 1 ]  (on peut simplement sauvegarder le max)</text><text y="120.333" style="white-space:pre" x="0">=&gt; M = maximum de zéros de poids forts consécutifs = 2 </text><text y="146" style="white-space:pre" x="0">=&gt; E = Estimations du nombre d'éléments distincts = 2^M = 2^2 = 4 </text></g><path d="M353.179 1615.925c4.27-.46 7.14-.36 11.33.2m-10.84.44c4.34.06 7.94-.53 12.21-.8m146.83-.26c6.37-.05 9.88.62 17.18 1.32m-17.23.57l16.35-2.02m55.759.581c3.4.69 5.12-1.42 11.13-.13m-12.37-.84c4.5-.26 8.82.33 13.14 1.19m66.132 1.232c2.17-1.84 3.68-2.48 10.08-1.92m-10.76.89c2.62-.42 5.61-.72 10.73-1.22" stroke-width="4" class="G H X"/><g transform="matrix(1 0 0 1 487.171306 361.058854)" class="B C F L"><text y="19.5" style="white-space:pre" x="0">users = [jean, jacques, elodie, jean, marie, marie]</text><text y="68.5" style="white-space:pre" x="0">distinct_users = []</text><text y="117.5" style="white-space:pre" x="0">for user in users :</text><text y="142" style="white-space:pre" x="0">    if user is not in distinct_users :</text><text y="166.5" style="white-space:pre" x="0">        distinct_users.append(user)</text><text y="215.5" style="white-space:pre" x="0">print(distinct_users)</text><text y="240" style="white-space:pre" x="0">&gt;&gt; [jean, jacques, elodie, marie]</text><text y="289" style="white-space:pre" x="0">count_distinct_users = len(distinct_users)</text><text y="313.5" style="white-space:pre" x="0">print(count_distinct_users)</text><text y="338" style="white-space:pre" x="0">&gt;&gt; 4</text></g><g transform="matrix(1 0 0 1 667.23324 1026.578533)" class="B C F L"><text y="19.5" style="white-space:pre" x="0">0101</text><text y="44" style="white-space:pre" x="0">1011</text><text y="68.5" style="white-space:pre" x="0">1100</text><text y="93" style="white-space:pre" x="0">0011</text><text y="117.5" style="white-space:pre" x="0">0101</text><text y="142" style="white-space:pre" x="0">0100</text><text y="166.5" style="white-space:pre" x="0">1100</text><text y="191" style="white-space:pre" x="0">0010</text><text y="215.5" style="white-space:pre" x="0">1010</text><text y="240" style="white-space:pre" x="0">0001</text></g><text y="2918.464" style="white-space:pre" x="507.042" class="B E O P">Notes :</text><g transform="matrix(1 0 0 1 645.435889 2897.494566)" class="B C E P"><text y="17.667" style="white-space:pre" x="0">- Les registres peuvent aussi être nommés des buckets.</text><text y="43.333" style="white-space:pre" x="0">- Les sketches peuvent être sommés (on parle d'union)</text></g><g transform="matrix(1 0 0 1 337.629237 1860.792305)" class="B C D F"><text y="19.667" style="white-space:pre" x="0">registres : r[00] = 0; r[01] = 0; r[10] = 0; r[11] = 0</text><text y="69" style="white-space:pre" x="0">sketch (composé des registres) : 0000</text></g><g transform="matrix(1 0 0 1 84.962571 1833.542305)" class="B D E I O"><text x="98" y="24.667" style="white-space:pre">Initialisation </text><text x="98" y="60.333" style="white-space:pre">des registres </text><text x="98" y="96" style="white-space:pre">du sketch</text></g><g transform="matrix(1 0 0 1 86.669972 2088.042305)" class="B D E I O"><text x="82.5" y="25.5" style="white-space:pre">Agrégations</text><text x="82.5" y="61" style="white-space:pre">des entrées</text></g><g transform="matrix(1 0 0 1 1228.87456 2056.794982)" class="B C D F"><text y="19.556" style="white-space:pre" x="0">r[01]</text><text y="68.667" style="white-space:pre" x="0">r[10]</text><text y="117.778" style="white-space:pre" x="0">r[00]</text><text y="166.889" style="white-space:pre" x="0">r[01]</text><text y="216" style="white-space:pre" x="0">r[10]</text></g><path d="M1137.791 2067.751l66.72-.97m-64.91.26c11.3-.63 56.36-2.32 67.31-2.17" class="G H J"/><path d="M1207.161 2065.181l-14.87 4.56.5-12.21 13.9 6.75" class="K"/><path d="M1207.701 2064.141c-4.7 3.64-9.46 6.45-13.75 7.57m12.5-6.75c-4.4 2.72-9.73 4.88-13.39 7.01m.69-.54c-1.53-3.64-1.04-10.63-.22-12.23m-.16 12.62c-.54-3.53.44-7.24.08-12.75m-.26.99c3.94-1.04 5.05-.16 12.83 5.73m-13.43-7.75c5.33 2.89 9.45 4.53 13.98 6.97m-67.19 49.702l68.71-1.21m-69.74.37l69.2.78" class="G H J"/><path d="M1206.101 2115.133l-12.31 5.93.56-14.06 11.51 7.22" class="K"/><path d="M1208.031 2115.613c-4.76 1.43-7.9 2.66-13.34 5.43m13.57-6.62c-6.24 2.24-11.46 5.61-14.14 6.85m.68-.69c-.73-2.95-.77-7.92.33-13.03m-1.54 13.24c.8-2.66.71-5.77.54-12.17m-1.46-.54c4.48 1.52 9.18 4.17 13.86 5.88m-12.49-5.49c2.86.29 4.8 2.81 13.87 6.73m-66.361 46.69l66.31.43m-64.58 1.83c11.03-.42 52.88-2.88 63.62-3.52" class="G H J"/><path d="M1205.73 2160.023l-13.95 6.28 1.66-11.29 13.71 5.93" class="K"/><path d="M1206.07 2160.613c-.85 1.88-3.66 1.94-11.58 6.41m13.14-6.13c-4.97 2.85-9.74 4.4-14.4 6.95m.16-.7c.91-3.04-.5-8.46-.11-12.04m-.17 12.81c.55-3.09.15-4.94-.21-12.42m-.85.17c4.63-.86 6.8 1.54 14.82 6.28m-14.62-7.29c6.3 2.57 11.34 4.74 14.02 5.27m.63.71" class="G H J"/><g transform="matrix(1 0 0 1 278.000823 1979.305083)" class="B C E M"><text y="18.5" style="white-space:pre" x="0">ordre</text><text y="44" style="white-space:pre" x="0">d'entrée</text></g><g transform="matrix(1 0 0 1 307.319005 2046.032356)" class="B C D F"><text y="19.5" style="white-space:pre" x="0">1</text><text y="68.5" style="white-space:pre" x="0">2</text><text y="117.5" style="white-space:pre" x="0">3</text><text y="166.5" style="white-space:pre" x="0">4</text><text y="215.5" style="white-space:pre" x="0">5</text></g><path d="M835.896 2064.806c10.06.26 51.2.1 61.52.58m-59.87-1.16l62.23 2.09" class="G H J"/><path d="M901.306 2067.206l-14.1 5.34 1.13-14.14 10.41 6.22" class="K"/><path d="M900.866 2065.466c-6.84 2.26-8.26 3.88-13.44 5.73m12.56-4.23c-2.62.68-5.56 2.37-14.57 4.52m-.13 1.35c1.01-6.34 1.85-10.46.83-12.23m-.4 11.87c.44-3.73.62-8.46.9-12.83m.05-.27c3.8 2.96 9.21 6.02 13.97 8.02m-13.68-8.38c4.23 3.43 9.87 6.63 12.23 6.78m.59.52" class="G H J"/><text y="2066.199" style="white-space:pre" x="388.43" class="B C F L">196589</text><text y="2112.588" style="white-space:pre" x="388.486" class="B C D F">961974</text><text y="2213.699" style="white-space:pre" x="389.597" class="B C F L">196589</text><text y="2162.866" style="white-space:pre" x="388.43" class="B C D F">593753</text><text y="2262.866" style="white-space:pre" x="390.652" class="B C D F">163014</text><text y="2021.032" style="white-space:pre" x="937.986" class="B C E M">nouvelles valeurs</text><g transform="matrix(1 0 0 1 1328.09534 1986.393106)" class="B C E I M"><text x="49.5" y="18.5" style="white-space:pre">sketch</text><text x="49.5" y="44" style="white-space:pre">mis à jour</text></g><g transform="matrix(1 0 0 1 1353.089207 2055.085386)" class="B C D F"><text y="19.556" style="white-space:pre" x="0">0010</text><text y="68.667" style="white-space:pre" x="0">0010</text><text y="117.778" style="white-space:pre" x="0">0012</text><text y="166.889" style="white-space:pre" x="0">0012</text><text y="216" style="white-space:pre" x="0">0112</text></g><path d="M473.095 2059.699l53.56-.8m-55.15.16c8.96.42 44.94.89 54.17.76" class="G H J"/><path d="M524.535 2061.239l-12.11 6.21-1.42-14.3 14.94 6.28" class="K"/><path d="M526.635 2059.749c-5.41 2.23-6.5 3.01-15.67 6.89m14.24-6.26c-3.76 1.76-8.7 3.45-12.77 5.29m.42 1.46c-.34-4.09-1.32-8.17-.1-14.39m-1.08 13.43c.14-4.34-.16-8.34.86-12.46m-1.11-.06c5.08 2.97 11.54 2.82 15.61 6.49m-14.21-7.05c2.78 2.22 6.94 4.42 12.65 6.09m-52.492 44.427c8.87.22 44.43-.7 53.04-.51m-53.9-.05c8.69.44 44.79 1.23 53.36 1.19" class="G H J"/><path d="M524.363 2104.906l-13.71 5.95 2.82-14.96 13.58 8.49" class="K"/><path d="M526.643 2105.236c-7.35.75-10.55 4-13.91 4.32m13.3-5.12c-4.93 2.46-9.09 4.46-13.77 5.7m.71.58c-.68-5.12-1.58-10.74-.34-12.53m-.45 12.42c-.21-3.39-.02-6.73.01-12.71m-1.31.06c5.7 2.9 11.61 4.38 14.97 6.03m-14.14-6.03c3.71.94 8.31 3.32 13.63 5.66m-48.078 105.202c8.87-.34 43.46-1.03 52.4-1.2m-53.64.05c8.7-.18 43.33 1.9 52.41 1.57" class="G H J"/><path d="M529.535 2210.788l-16.26 6.16 2.94-12.28 11.05 4.82" class="K"/><path d="M528.175 2208.548c-3.15 3.22-6.54 4.12-12.54 7.28m13.12-6.39a42.43 42.43 0 0 0-13.63 6.53m-.57.65c1.05-5.52.64-9.71-.64-13.49m.27 11.79c.83-3.01.1-7.41.28-12.35m-.77-.03c4.96 1.68 8.43 3.01 14.72 7.93m-13.89-7.54c3.29 1.52 7.56 2.26 14.5 6.36m-55.861-54.744l54.61 1.35m-52.7-2.31c8.81-.07 43.55.25 52.12.37" class="G H J"/><path d="M525.734 2155.544l-10.94 6.6-2.29-14.43 14.81 6.19" class="K"/><path d="M527.394 2154.814c-4.35 1.29-8.47 3.7-12.4 5.86m11.62-7.26c-3.72 2.56-7.86 5.2-13.07 6.91m.82-.61c-.42-3.96-1.77-6.29-.85-12.5m.2 13.14c-.64-3.49-.5-5.8-.01-12.36m-.5-.94c3.83 1.51 9.44 6 13.12 7.89m-13.09-7.31c4.78.93 8.62 3.5 14.18 6.42m-46.04 100.071l52.79 1.52m-53.89-2.38c8.91-.07 44.07.45 53 .64" class="G H J"/><path d="M534.544 2255.895l-16.14 4.37 1.5-12.98 15.3 5.86" class="K"/><path d="M533.714 2254.035c-3.02 1.97-5.93 3.58-13.78 6.62m13.45-6.78c-4.25 2.54-9.11 4.11-13.94 6.03m.49-.69c-1.39-3.82-.42-9.58-1.21-12.98m.25 13.23c.13-2.5.69-4.8 1.04-12.66m-1.33-.56c4.99 4.26 8.06 5.93 14.32 6.81m-12.65-6.41c4.48 2.9 8.61 5.14 13.55 6.65m118.644-93.042c12.87.24 65.91-.07 78.65-.08m-76.88-.68l76.51-1.12" class="G H J"/><path d="M732.418 2159.073l-16.44 5.87 3.11-12.47 12.93 6.14" class="K"/><path d="M731.528 2159.763c-4.69-.56-9.36 2.47-14.27 4.4m12.85-5.38c-2.16 1.04-6.23 3.07-12.3 5.48m-1.64.73c.08-4.51.58-8.01 1.74-13.9m-1 13.62c.37-2.72.26-5.81-.27-12.7m.55.89c5.61 2.66 10.56 2.75 13.58 5.96m-13.71-6.35c5.44 1.91 10.5 3.79 14.02 6.56m-79.123 48.561l77.12 1.09m-75.18-2.38l74.2.64" class="G H J"/><path d="M728.795 2208.034l-15.66 5.64 2.29-12.45 11.58 4.3" class="K"/><path d="M727.505 2206.904c-2.71.52-9.02 3.27-12.47 5.21m12.91-5.72c-4.05 1.89-6.76 3.47-14.22 6.78m1.75-.81c-1.14-3.14-.12-7.58-1.85-12.02m.98 12.29c.03-3.11.02-7.51-.51-12.21m.48 1.49c4.09-.27 6.1.89 14.17 5.33m-14.73-7.23c6.31 2.55 11.62 5.88 13.56 6.97m-73.645 50.39l76.02.8m-74.21-1.87c12.21-.46 61.22.04 73.47.2" class="G H J"/><path d="M731.14 2255.434l-15.97 8.85.62-15.33 15.06 8.55" class="K"/><path d="M729.15 2256.994c-3.89 2.11-11.19 3.88-13.09 6.22m13.4-6c-3.76 1.38-8.21 2.48-14.43 4.83m1.38.31c-.9-3.4-.24-5.65.4-13.5m-.8 13.4c.17-2.32-.74-5.52.29-12.17m-1.57.17c6.09 1.93 11 5.2 13.87 5.74m-12.56-5.93c2.14 1.86 4.91 2.2 13.43 6.83m111.693-142.258c9.66.09 48.44-.62 58.27-.9m-56.68.25l55.53 1.27" class="G H J"/><path d="M897.233 2117.016l-11.29 5-.46-12.13 11.6 4.23" class="K"/><path d="M899.223 2114.766c-4.12 2.17-8.25 2.11-13.79 6.28m12.85-6.12c-4.78 3.1-9.25 4.22-13.09 6.53m-1.03-1.03c1.41-2.81 1.11-4.21-.2-10.58m.18 11.29c.8-3.18.28-5.34.81-12.7m.22.42c3.36 3.57 9.91 2.84 13.74 6.17m-13.91-5.72c3.66 1.51 7.43 3.02 13.3 6.12M839.5 2164.97c10.96-.15 55.85.04 66.89.46m-65.06 1.8l63.89-.79" class="G H J"/><path d="M905.57 2166.68l-13.33 8.26-.57-14.39 13.83 5.58" class="K"/><path d="M904.36 2165.9c-4.89 1.28-6.81 5.07-12.81 8.36m13.46-8.26c-4.31 2.97-7.57 4.49-14.04 6.35m1.99 1.57c-1.96-4.09-2.65-10.62-.7-13.87m-.19 12.5c-.12-4.38-.95-8.48-.13-11.88m-.08.42c3.14 1.81 8.27 1.42 14.16 5.61m-13.77-6.23c3.1 1.19 6.27 3.38 12.25 5.84m-63.739 43.528c10.65.2 52.77 2.32 63.26 2.6m-64.82-.53l64.41-1.18" class="G H J"/><path d="M902.151 2211.408l-13.93 6.89.27-14.56 15.2 6.79" class="K"/><path d="M902.311 2212.018c-.81 1.02-5.08.74-11.65 5.52m13.33-7.45c-4.75 3.12-10.38 4.73-14.35 7.84m1.34.19c-2.25-5.22-1.09-9.07-1.47-13.91m.91 13.03c-.37-2.59-.94-6.21-.17-13.18m1.08.2c2.64 3.43 9.62 5.37 12.67 7.93m-14.16-8.41c5.03 2.99 7.77 4.39 13.5 7.64m-61.659 49.127l60.89-.24m-62.32-.87c10.17-.13 51.76 1.7 61.75 1.79" class="G H J"/><path d="M903.082 2260.995l-14.38 6.55 1.5-12.52 10.72 4.8" class="K"/><path d="M901.832 2262.125c-4.94-.03-6.47 1.19-12.2 4.81m11.7-5.37c-2.86 1.33-6.51 3.58-13.05 5.7m1.16.52c-2.33-4.83-1.41-7.41.17-12.47m-1.32 11.8c.04-4.28.27-7.82.48-13.04m1.12 1.81c1.96-.75 5.99.84 11.01 5.85m-12.6-7.2c3.03 1.54 5.88 2.13 14.37 7.08m241.851-48.495c10.68.27 53.55.45 64.31.35m-65.55-1.05l64.7-.46" class="G H J"/><path d="M1206.293 2211.53l-13.14 6.53.65-10.96 13.55 4.63" class="K"/><path d="M1208.793 2212.19c-4.18 2.58-10.16 5.7-14.85 5.85m14.28-5.62c-3.65.77-6.17 3.19-13.98 5.92m1.23-.63c-2.27-3.23-.64-8.24-1.12-11.08m.12 12.15c-.55-3.94.15-8.45-.11-13.23m-.99-.62c3.71 1.58 10.09 4.38 15.28 7.28m-13.9-6.04c2.67.37 5.6 2.47 13.14 5.28m-64.482 53.335l65.7.71m-67.22-1.77c11.14-.21 55.52-.14 66.82.09" class="G H J"/><path d="M1209.991 2263.095l-14.42 6.44 1.36-11.95 12.69 4.58" class="K"/><path d="M1208.681 2265.125c-1.75-1.05-6.35-.15-14.52 5.82m13.93-7.84c-2.9 2.97-7.01 4.63-13.38 7.07m.98-.11c-.17-3.93.68-8.65.3-12.47m-1.12 12.68c-.2-4.87-.39-9.56.46-12.95m-1.42-.29c4.59 2.24 9.3 5.55 14.33 6.61m-12.98-6.43c5.85 2.88 10.94 5.64 13.37 7.02m.08-.42" class="G H J"/><text x="394.988" y="2717.954" style="white-space:pre" class="B E I O Q">Estimation :</text><use xlink:href="#A" x="113.798" y="0.987" class="G H S T W"/><text x="702.652" y="2814.606" style="white-space:pre" class="B F I R U">r[10]</text><use xlink:href="#A" x="166.922" y="0.373" class="G H S T W"/><text x="758.232" y="2814.606" style="white-space:pre" class="B F I R U">r[11]</text><g transform="matrix(1 0 0 1 1508.469797 2059.253079)" class="B C D F I"><text x="18" y="19.556" style="white-space:pre">5</text><text x="18" y="68.667" style="white-space:pre">5</text><text x="18" y="117.778" style="white-space:pre">5,8</text><text x="18" y="166.889" style="white-space:pre">5,8</text><text x="18" y="216" style="white-space:pre">7,1</text></g><path d="M1415.271 2072.23l84.91-.47m-86.09-.39c14.29-.49 70.35-1.3 84.85-1.4" class="G H J"/><path d="M1499.311 2068.38l-13.98 6.66-.89-9.27 12.55 4.65" class="K"/><path d="M1499.391 2069.28c-2.52 3.07-7.55 4.6-12.9 8.52m12.77-8.37c-6.23 3.03-10.73 5.61-13.57 6.3m-.1 1.62c-.42-5.59-1-9.83-.84-14.7m.3 13.56c.24-4.75.36-9.86.19-12.05m1-.75c4.53 2.7 7.29 5.52 12.95 5.98m-13.91-6c4.51 2.66 7.01 3.85 13.65 5.93m-84.755 49.669l86.9.02m-88.46-1.02c14.42-.4 73.4-.39 87.89-.66" class="G H J"/><path d="M1498.986 2116.949l-12.52 4.87 1.94-11.24 10.88 7.23" class="K"/><path d="M1500.616 2118.239c-2.85.89-7.27 1.28-14.16 5.79m14.08-6.44c-5.12 1.15-8.48 3.37-14.26 6.74m-.12.4c.88-3.3-.25-6.55 1.67-13.34m-.74 12.32c.35-3.03.27-7.15-.86-12.79m.19 1.66c5.51 1.93 9.07 3.52 13.4 6.02m-12.71-7.65c2.75 1.79 5.5 2.15 12.87 6.68m-87.986 46.882l83.98-.71m-85.01-.54c14.25-.21 72.88 1.82 87.09 1.9" class="G H J"/><path d="M1496.55 2163.711l-12.27 8.59-.98-13.83 14.51 8.37" class="K"/><path d="M1497.57 2163.661c-5.07 3.74-11.25 4.8-13.69 9.02m14.79-7.87c-5.09 2.15-11.46 5.67-14.1 6.24m-1.48-.74c1.76-3.58 1.85-6.61.3-11.89m1.01 12.32c-.57-3.72-.38-8.68-.39-12.83m.25 1.17c6.2.54 9.17 3.55 12.32 7.24m-11.85-8.52c3.12 1.83 7.72 3.63 13.77 7m-83.375 49.107l84.14.84m-85.23 1.19c14.21-.22 73.17-3.06 87.34-3.06" class="G H J"/><path d="M1499.815 2214.818l-10.67 2.99.4-10.14 11.12 4.05" class="K"/><path d="M1499.975 2211.428c-3.28 3.62-8.81 6.41-11.47 9.47m12.13-7.44c-2.48.43-5.11 2.53-13.4 5.74m1.47-.21c-.3-1.9-.18-4.87-1.77-11.65m1.5 12.25c-.83-3.47-.47-6.71-.47-12.42m-.07-.18c3.87 1.04 10.25 5.23 12.5 5.85m-12.9-5.26c4.35.82 8.36 2.66 14.05 5.18m-89.447 51.784l86.32-1.05m-87.42.26c14.33.44 72.51 1.16 87 1.36" class="G H J"/><path d="M1499.828 2266.162l-14.02 5.72-2.69-14.92 16.08 9.06" class="K"/><path d="M1498.598 2266.372c-4.85 1.91-9.3 2.97-15.41 3.82m14.79-5.17c-3.39 1.76-8.21 4.33-13.42 6.01m-.43.73c.85-3.77 1.5-10.14.76-13.13m.01 13.04c-.6-4.37-.22-7.37-1.02-13.18m1.35-1.06c4.54 3.9 5.56 6.31 13.34 7.16m-14.78-5.99c3.96 1.73 6.6 2.59 14.06 6.44m.15.07" class="G H J"/><path d="M1582.84 2051.423l-1.62 237.02m.08-238.3l-1.18 239.22" class="G H V"/><path d="M1578.87 2290.743l-3.18-15.96 12.42 1.11-8.41 15.3" class="K P"/><path d="M1579.55 2288.993c-3.42-5.43-5.63-9-4.34-12.02m4.92 12.46c-2.42-4.84-5.15-9.8-5.73-13.74m-1.07.3c3.57-.67 9.25-.83 12.23.72m-11.28-1.24c1.96.51 4.87.18 12.41.17m-1.3 1.46c-.87 2.88-2.42 7.22-6.39 12.71m7.9-14.14c-2.68 5.74-4.8 9.98-6.49 13.25m-.29.44" class="G H V"/><g transform="matrix(1 0 0 1 1615.225693 2101.649588)" class="B C E P"><text y="17.6" style="white-space:pre" x="0">L'estimation</text><text y="43.2" style="white-space:pre" x="0">s'affine </text><text y="68.8" style="white-space:pre" x="0">avec le </text><text y="94.4" style="white-space:pre" x="0">nombre </text><text y="120" style="white-space:pre" x="0">d'éléments</text></g><g transform="matrix(1 0 0 1 609.417875 2557.499426)" class="B C E I M"><text x="51" y="18.5" style="white-space:pre">Estimation</text><text x="51" y="44" style="white-space:pre">brute</text></g><g transform="matrix(1 0 0 1 1168.584881 2643.086059)" class="B C D E"><text y="18.5" style="white-space:pre" x="0">Moyenne</text><text y="44" style="white-space:pre" x="0">harmonique</text></g><text y="1893.423" style="white-space:pre" x="42.437" class="B D E O">1.</text><text y="2125.296" style="white-space:pre" x="45.39" class="B D E O">2.</text><path d="M1299.929 2069.556c7.04-.04 36.05-1.18 43.17-1.27m-41.14.23l40.1 1.04" class="G H J"/><path d="M1341.879 2069.866l-14.31 7.07.69-13.7 13.07 5.53" class="K"/><path d="M1342.079 2069.336c-5.55 1.54-9.49 3.72-14.3 5.3m13.83-5.16c-3.57 1.61-6.27 2.54-13.2 5.88m-1.36.63c1.6-6.07 1.51-10.53.58-12.72m1.25 11.93c-.81-3.65 0-8.57-.13-12.65m.71-.74c2.5 2.31 9.54 4.27 12.79 8.48m-13.6-7.06c3.83 1.32 8.82 3.8 13.56 6.4m-41.687 46.18l44.08.85m-45.55 1.44c7.28-.27 37.88-2.7 45.16-3.05" class="G H J"/><path d="M1344.772 2115.136l-12.73 5.48-2.53-9.21 14.25 2.92" class="K"/><path d="M1343.432 2116.366l-11.12 4.44m12.02-6.03c-4.35 2.7-9.48 5.19-13.56 6.81m.67.83c-.23-4.4-.24-10.07-.88-13.26m.4 13.7c-.34-3.85.14-6.72-1.08-13.19m1.21-.69c4.82 1.65 8.98 4.06 13.43 6.04m-14-5.55c3.68 1.83 8.04 3.24 13.24 6.04m-44.723 49.822c7.04-.02 35.66.58 42.87.72m-40.9-2.03c7.43-.36 36.57.36 43.31.43" class="G H J"/><path d="M1343.849 2165.448l-14.64 3.36.23-11.51 16.82 6.7" class="K"/><path d="M1343.699 2163.718c-2.45 2.37-6.61 3.84-13.05 7.8m14.29-7.41c-6.15 3.01-10.99 4.99-14.9 6.02m.53-.32c1.1-1.87-.12-5.71.59-11.79m-.09 12.44c-.13-3.18.17-7.35-.86-12.82m1.74 1.44c3.12.98 7.17 2.21 13.12 5.69m-14.03-6.86c5.08 1.73 9.36 5.42 13.11 6.27m-41.517 49.634l41.31.26m-42.78-1.33c7.44-.34 37.89-.5 45.13-.28" class="G H J"/><path d="M1346.002 2213.032l-13.41 5.83 2.07-13.41 12.52 8.86" class="K"/><path d="M1346.232 2211.582c-2.06 2.99-6.91 3.66-13.21 7.27m13.81-6.49c-4.43 2.65-8.22 4.03-14.94 6.05m1.69 1.29c-1.07-5.21-1.35-10.16-.19-13.42m-.57 12.43c.18-5.18-.32-8.71-.21-12.94m-.26-1.13c4.08 3.63 7.56 5.51 15.31 8.39m-15.37-6.53c4.6.41 7.12 2.75 14.58 5.62m-46.124 47.154c7.17-.27 36.97-.57 44.06-.6m-42.38-.68c7.1-.14 35.35 1.65 42 2.08" class="G H J"/><path d="M1345.808 2258.406l-14.29 8.72-1.8-13.34 16.03 4.88" class="K"/><path d="M1343.878 2261.416c-4.02-.33-7.69 2.1-12.69 3.74m12.54-5.01c-1.56 1.39-5.47 2.39-12.81 4.95m-1.13.41c1.85-5.16.85-8.6.57-13.71m-.04 13.76c.59-2.42.1-6.04.65-13.21m1.43-.05c4.19 2.92 7.52 5.94 11.99 7.92m-12.45-7.31c4.53 3 9.95 5.12 11.88 6.94m.61.23" class="G H J"/><text y="2736.835" font-size="36" style="white-space:pre" x="1202.308" class="B D E">+</text><text y="3046.115" style="white-space:pre" x="34.363" class="B D E O">Exemple d'utilisation</text><g transform="matrix(1 0 0 1 344.845802 3104.109466)" class="B C D E"><text y="18.571" style="white-space:pre" x="0">L'association de pêche au crabe de Brest souhaite estimer le nombre de visiteurs distincts sur sa page internet. </text><text y="44.143" style="white-space:pre" x="0">Elle a déjà tenté par le passé de mettre en œuvre une solution simple, mais la popularité de l'association prenant</text><text y="69.714" style="white-space:pre" x="0">un ascendant exponentiel le traitement s'est vite retrouvée en rade (de Brest).</text><text y="120.857" style="white-space:pre" x="0">Elle a donc choisi la solution HLL : elle va maintenir pour chacune de ses pages un datasketch HLL qu'elle remettra</text><text y="146.429" style="white-space:pre" x="0">à zéro tous les jours. Ainsi l'association pourra identifier les pages les plus populaires tout en distinguant les jours</text><text y="172" style="white-space:pre" x="0">à haute fréquentation.</text></g><path d="M674.91 3352.629c40.67-1.23 80.97.71 132.04 0m-132.04 0h132.04m0 0c7.24.2 11.96 4.06 10.05 10.06m-10.05-10.06c7.26.66 11.6 4.17 10.05 10.06m0 0c.56 3.32.91 12.06 0 20.11m0-20.11c-.03 7.16.81 15.6 0 20.11m0 0c1.07 5.75-1.73 9.29-10.05 10.05m10.05-10.05c.72 5.6-2.52 12-10.05 10.05m0 0c-42.46 1.98-87.22.43-132.04 0m132.04 0H674.91m0 0c-6.4.8-11.52-3.5-10.06-10.05m10.06 10.05c-5.19.62-8.22-3.72-10.06-10.05m0 0c1.15-2.64 1.38-10.86 0-20.11m0 20.11c-.49-3.86.31-8.62 0-20.11m0 0c.25-8.51 4.61-8.51 10.06-10.06m-10.06 10.06c-2.28-8.91 1.67-8.4 10.06-10.06" class="G H J"/><text y="3379.118" style="white-space:pre" x="705.075" class="B C D E">accueil</text><path d="M836.142 3356.127c30.71-.59 62.93-1.07 145 0m-145 0c51.69-1.24 105.39-.13 145 0m0 0c5.79 1.23 8.04 2.59 9 9m-9-9c4.17 1.55 9.61 2.62 9 9m0 0c-1.2 5.78-1.63 11.15 0 18m0-18c-.49 7.47-.55 13.01 0 18m0 0c.58 4.33-4.97 7.06-9 9m9-9c-1.43 4.24-4.2 10.47-9 9m0 0c-45.06-1.03-91.17-1.1-145 0m145 0c-50.55-1.52-102.67-1.74-145 0m0 0c-6.35-1.08-7.9-3.14-9-9m9 9c-7.7.7-7.96-2.79-9-9m0 0c-1.32-6.18-1.55-12.63 0-18m0 18c-.99-5.24-.71-10.46 0-18m0 0c.95-7.24 2.74-10.64 9-9m-9 9c.51-7.17 3.14-7 9-9" class="G H J"/><text x="908.642" y="3379.127" style="white-space:pre" class="B C D E I">saint-anne</text><path d="M1006.034 3355.616c53.85.61 106.54 2.3 143 0m-143 0c46-.91 93.46.17 143 0m0 0c6.11 1.37 10.51 3.31 9 9m-9-9c5.43 2.26 8.84 1.7 9 9m0 0c1.36 5.49 1.53 10.53 0 18m0-18c-.94 4.07.78 9.28 0 18m0 0c.9 7.77-4.8 8.65-9 9m9-9c-1.19 7.5-3.54 7.65-9 9m0 0c-49.93 2.69-95.47 1.9-143 0m143 0c-55.57.06-113.5-.89-143 0m0 0c-5.84 1.9-9.93-1.86-9-9m9 9c-5.03.09-9.41-4.03-9-9m0 0c-1.25-4.81-.38-10.51 0-18m0 18c-.47-4.82.34-10.08 0-18m0 0c1.82-4.97 3.57-8.31 9-9m-9 9c2.13-7.09 4.04-7.2 9-9" class="G H J"/><text x="1077.534" y="3378.616" style="white-space:pre" class="B C D E I">plouguerneau</text><path d="M488.47 3413.84c43.01 2.15 84.53 1.61 151.64 0m-151.64 0h151.64m0 0c7.39 1.39 7.45 3.15 9 9m-9-9c7.55 1.35 8.93 1.71 9 9m0 0c-.59 5.02.35 11.92 0 18m0-18c.95 7.16-.57 12.65 0 18m0 0c-1.35 5.55-1.54 7.27-9 9m9-9c.32 5.25-1.83 10.17-9 9m0 0c-51.68 1.27-107.53-1.71-151.64 0m151.64 0c-42.62.69-87.41.36-151.64 0m0 0c-7.95 1.81-8.25-2.72-9-9m9 9c-3.74-.6-8.5-2.22-9-9m0 0c1.31-5.98-1.49-10.86 0-18m0 18c.56-4.27-.6-7.46 0-18m0 0c-1.89-6.87 2.93-8.09 9-9m-9 9c-.68-6.25 3.92-9.72 9-9" class="G H J"/><text x="564.29" y="3436.84" style="white-space:pre" class="B C D E I">03/04/23</text><path d="M491.093 3464.046c41.45-.28 79.81 2.52 151.64 0m-151.64 0c58.38-1.38 116.14-.57 151.64 0m0 0c4.69-.62 7.05 2.44 9 9m-9-9c5.65 1.3 9.66 1.87 9 9m0 0c-.5 6.36.68 15.83 0 18m0-18c.49 7.57-.31 14.16 0 18m0 0c1.05 4.69-4.53 7.73-9 9m9-9c-1.41 7.69-5.29 9.62-9 9m0 0c-32.64-.98-64.56.41-151.64 0m151.64 0h-151.64m0 0c-6.43-.56-9.65-4.46-9-9m9 9c-5.26-1.4-6.92-1.18-9-9m0 0c.69-6.76.21-11.8 0-18m0 18c.11-4.28.04-6.52 0-18m0 0c1.05-4.23 3.49-9.84 9-9m-9 9c2.13-4.03 4.21-9.67 9-9" class="G H J"/><text x="566.913" y="3487.046" style="white-space:pre" class="B C D E I">04/04/23</text><path d="M489.344 3518.261h151.64m-151.64 0c36.7-1.68 73-.86 151.64 0m0 0c5.43.14 9.76 1.05 9 9m-9-9c4.24.74 8.94 1.37 9 9m0 0c1.75 5.65-.6 12.08 0 18m0-18c-.12 6.57.7 13.68 0 18m0 0c-1.41 7.48-2.44 8.17-9 9m9-9c-1.17 4.46-1.47 9.76-9 9m0 0c-44.56 1.52-92.26.02-151.64 0m151.64 0c-40.7-1.79-83.86-1.24-151.64 0m0 0c-7.93-1.1-10.87-2.19-9-9m9 9c-6.29-.02-7.05-3.08-9-9m0 0c1.22-5.4-.73-12.13 0-18m0 18c-.63-4.7-1-10.84 0-18m0 0c-1.63-7.67 2.98-8.97 9-9m-9 9c1.18-4.79 1.68-8.47 9-9" class="G H J"/><text x="565.165" y="3541.261" style="white-space:pre" class="B C D E I">05/04/23</text><path d="M491.093 3568.978c59.87-1.46 117.98.3 151.64 0m-151.64 0c53.93 1.01 109.95 1.34 151.64 0m0 0c4.24.69 10.95 2.83 9 9m-9-9c4.46-1.63 10.99 3.57 9 9m0 0c1.19 3.91.82 11.37 0 18m0-18c.35 3.5-.37 8.76 0 18m0 0c.35 5.68-4.78 7.09-9 9m9-9c.96 7.35-2.57 8.77-9 9m0 0c-32.55-1.08-64.99-.89-151.64 0m151.64 0h-151.64m0 0c-7.18 1.18-9.13-3.38-9-9m9 9c-5.23-.1-9.6-1.89-9-9m0 0c.62-8.07 1.23-15.29 0-18m0 18c.03-6.11-.61-11.18 0-18m0 0c1.04-7.08 4.03-8.48 9-9m-9 9c-1.38-4.28 5.23-7.2 9-9" class="G H J"/><text x="566.913" y="3591.978" style="white-space:pre" class="B C D E I">06/04/23</text><text y="3325.894" style="white-space:pre" x="792.91" class="B C D E">http://BrestCrabs.bzh/</text><path d="M785.182 3298.507c72.67 2.83 143.97 1.32 240.28 0m-240.28 0c60.74 1.06 122.94-.19 240.28 0m0 0c7.72 1.55 9.64 3.97 10.66 10.66m-10.66-10.66c5.05.92 10.25 5.39 10.66 10.66m0 0c1.63 8.98-.02 17.62 0 21.31m0-21.31c-.35 6.54-.81 11.02 0 21.31m0 0c-.34 8.49-2.09 9.96-10.66 10.65m10.66-10.65c.89 7.47-4.67 9.67-10.66 10.65m0 0c-84.89 2.75-168.5.74-240.28 0m240.28 0h-240.28m0 0c-6.36 1.7-11.06-4.6-10.66-10.65m10.66 10.65c-5.97-.98-11.65-3.44-10.66-10.65m0 0c-1.69-6.71-1.86-17.31 0-21.31m0 21.31c-.09-5.11-.23-8.2 0-21.31m0 0c.88-8.19 3.08-11.11 10.66-10.66m-10.66 10.66c-1.9-5.95 4.81-11.33 10.66-10.66m-106.778 117.009c32.41.83 61.25 1.18 132.06 0m-132.06 0h132.06m0 0c7.82-.4 8.14 4.05 9.19 9.19m-9.19-9.19c5.15-.99 9.3 5.28 9.19 9.19m0 0c1.74 5.38-.24 12.21 0 18.39m0-18.39c-.75 6.54.51 13.67 0 18.39m0 0c-1.08 5.66-3.51 7.54-9.19 9.19m9.19-9.19c1.16 7.39-3.73 8.58-9.19 9.19m0 0h-132.06m132.06 0c-50.47-1.68-102.88-1.14-132.06 0m0 0c-5.02.18-11.02-3.18-9.19-9.19m9.19 9.19c-6.44.34-9.83-1.14-9.19-9.19m0 0c-.54-4.18-.04-12.66 0-18.39m0 18.39c-.4-4.35.71-10.03 0-18.39m0 0c1.65-6.64 1.53-10.78 9.19-9.19m-9.19 9.19c1.07-5.34 2.58-9.37 9.19-9.19" class="G H J"/><text x="744.434" y="3438.904" style="white-space:pre" class="B C D E I">2389</text><path d="M676.732 3467.335c52.68-1.27 101.45-.19 132.06 0m-132.06 0c46.87 1.07 94.01.93 132.06 0m0 0c7.79.49 10.33 3.78 9.19 9.19m-9.19-9.19c5.59 2.23 9.27 2.15 9.19 9.19m0 0c-.25 5.5 1.98 8.35 0 18.39m0-18.39c-.78 7.47.27 13.87 0 18.39m0 0c-.16 6.24-2.47 9.91-9.19 9.19m9.19-9.19c1.79 7.6-5.34 9.95-9.19 9.19m0 0c-42.52-.12-89.31.71-132.06 0m132.06 0c-46.87.2-92.06-.71-132.06 0m0 0c-7.29-1.53-7.82-4.2-9.19-9.19m9.19 9.19c-4.1.52-9.07-1.73-9.19-9.19m0 0c-1.31-2.73-1.81-8.8 0-18.39m0 18.39c.23-6.37.57-11.15 0-18.39m0 0c-.72-7.73 4.29-7.44 9.19-9.19m-9.19 9.19c-.84-4.33 2-11.42 9.19-9.19" class="G H J"/><text x="742.763" y="3490.722" style="white-space:pre" class="B C D E I">8a13</text><path d="M675.06 3520.825c36.64-1.54 71.33-1.74 132.06 0m-132.06 0c27.21 1.48 53.91 1.18 132.06 0m0 0c5.52-.01 11.04 4.3 9.19 9.19m-9.19-9.19c4.23-1.93 8.85 2.73 9.19 9.19m0 0c.6 6.08.58 12.57 0 18.39m0-18.39c-.34 5.71.46 11.7 0 18.39m0 0c-1.25 5.85-4.13 10.74-9.19 9.19m9.19-9.19c-.38 6.09-1.01 10.68-9.19 9.19m0 0c-38.54-1.78-75.06-.13-132.06 0m132.06 0c-46.11-.67-91.65-.2-132.06 0m0 0c-6.81-1.98-8.37-1.31-9.19-9.19m9.19 9.19c-6.48-.98-9.66-1.28-9.19-9.19m0 0c-.14-4.07-.64-10.31 0-18.39m0 18.39c.45-5.86.26-13.64 0-18.39m0 0c1.44-5.13 2-7.42 9.19-9.19m-9.19 9.19c1.42-4.67 2.55-10.17 9.19-9.19" class="G H J"/><text x="741.091" y="3544.212" style="white-space:pre" class="B C D E I">7823</text><path d="M676.732 3570.136c50.85-1.55 101.69-.28 132.06 0m-132.06 0c33.22-1.04 64.76-1.31 132.06 0m0 0c6.96 1.38 7.84 2.93 9.19 9.19m-9.19-9.19c7.49 2.11 7.4 2.55 9.19 9.19m0 0c.5 3.86 1.45 9.9 0 18.39m0-18.39c-.05 5.25-.84 9.41 0 18.39m0 0c1.92 7.43-4.38 10.51-9.19 9.19m9.19-9.19c2.03 5.13-3.32 7.53-9.19 9.19m0 0c-49.38-1.26-104.52-1.63-132.06 0m132.06 0c-52.61-1.6-102.61-.94-132.06 0m0 0c-7.97-1.84-7.37-3.18-9.19-9.19m9.19 9.19c-3.88.63-8.06-2.7-9.19-9.19m0 0c1.16-4.87-1.39-8.37 0-18.39m0 18.39c-.44-6.61.53-11.86 0-18.39m0 0c-1.78-7.67 4.32-10.52 9.19-9.19m-9.19 9.19c-.93-8.3 2.5-6.95 9.19-9.19" class="G H J"/><text x="742.763" y="3593.524" style="white-space:pre" class="B C D E I">3a4b</text><path d="M842.217 3414.681c36.26-2.36 74-.36 132.06 0m-132.06 0c44.02 1.19 89.52-.36 132.06 0m0 0c4.58 1.26 7.87 2.26 9.19 9.19m-9.19-9.19c3.95-.57 11.44 4.96 9.19 9.19m0 0c.31 7.66-.91 13.82 0 18.39m0-18.39c-.53 3.73.06 6.85 0 18.39m0 0c1.28 5.42-2.91 10.47-9.19 9.19m9.19-9.19c2.14 6.6-1.45 7.13-9.19 9.19m0 0c-29.28-.62-59.73-1.3-132.06 0m132.06 0c-41.68 1.17-81.56 1.73-132.06 0m0 0c-5.66 1.02-8.91-2.98-9.19-9.19m9.19 9.19c-8.26-2.21-9.64-.95-9.19-9.19m0 0c-.99-5.37-1.5-12.96 0-18.39m0 18.39c.08-4.31.68-8.02 0-18.39m0 0c-1.07-5.97 1.89-7.88 9.19-9.19m-9.19 9.19c-.18-3.88 1.72-7.47 9.19-9.19" class="G H J"/><text x="908.248" y="3438.068" style="white-space:pre" class="B C D E I">0123</text><path d="M1011.881 3468.171c45.91.73 92.46-.39 132.06 0m-132.06 0c29.49.92 59.44 1.32 132.06 0m0 0c5.06.15 8.02 4.37 9.19 9.19m-9.19-9.19c5.94 2.25 7.84 4.79 9.19 9.19m0 0c.6 5.45.19 12.57 0 18.39m0-18.39c-.32 5.73.13 13.95 0 18.39m0 0c-1.15 6.87-1.48 7.46-9.19 9.19m9.19-9.19c.71 4.25-2.1 9.51-9.19 9.19m0 0c-29.57 1.73-60.82 1.36-132.06 0m132.06 0c-40.98-1.71-81.74-1.65-132.06 0m0 0c-6.19-1.11-10.54-1.48-9.19-9.19m9.19 9.19c-4.77.24-7.78-1.85-9.19-9.19m0 0c1.53-2.82.79-8.67 0-18.39m0 18.39c.86-5.95-.53-9.73 0-18.39m0 0c1.71-5.56 1.71-8.22 9.19-9.19m-9.19 9.19c-.56-5.34 2.59-8.82 9.19-9.19" class="G H J"/><text x="1077.912" y="3491.558" style="white-space:pre" class="B C D E I">34e2</text><path d="M1010.21 3414.681c29.25-.74 56.66.53 132.06 0m-132.06 0h132.06m0 0c8.08-1.17 10.69 4.87 9.19 9.19m-9.19-9.19c8.21-1.49 9.73.9 9.19 9.19m0 0c.48 5.76-.95 9.28 0 18.39m0-18.39c.48 6.38-.66 11.59 0 18.39m0 0c-1.63 6.97-2.79 7.78-9.19 9.19m9.19-9.19c-.66 6.52-2.24 10.92-9.19 9.19m0 0c-37.3-1.32-77.12-1.5-132.06 0m132.06 0c-28.47-.71-55.03.55-132.06 0m0 0c-5.92 1.23-8.14-4.89-9.19-9.19m9.19 9.19c-5.67-.21-7.23-1.79-9.19-9.19m0 0c-1.03-7.73 1.6-14.25 0-18.39m0 18.39c.14-4.85.32-8.68 0-18.39m0 0c.68-6.54 3.39-11.15 9.19-9.19m-9.19 9.19c.26-5.29 5-10.46 9.19-9.19" class="G H J"/><text x="1076.24" y="3438.068" style="white-space:pre" class="B C D E I">1c34</text><path d="M844.725 3467.335c42.5-2.2 84.56-2.3 132.06 0m-132.06 0h132.06m0 0c4.83.47 7.31 3.08 9.19 9.19m-9.19-9.19c3.9 1.38 10.01 3.34 9.19 9.19m0 0c1.22 3.68.5 10.95 0 18.39m0-18.39c.44 4.05-.59 7.58 0 18.39m0 0c.34 6.84-1.57 8.95-9.19 9.19m9.19-9.19c1.3 6.27-2.24 7.58-9.19 9.19m0 0c-33.78-1.23-65.75-2.52-132.06 0m132.06 0h-132.06m0 0c-6.31 1.71-8.09-2.17-9.19-9.19m9.19 9.19c-7.38-.43-10.6-4.81-9.19-9.19m0 0c1.38-5.44.68-15.27 0-18.39m0 18.39c-.14-6.26-.86-12.71 0-18.39m0 0c.73-4.44 1.96-9 9.19-9.19m-9.19 9.19c-.01-7.6 1.14-8.13 9.19-9.19" class="G H J"/><text x="910.755" y="3490.722" style="white-space:pre" class="B C D E I">34bf</text><path d="M847.232 3521.661c40.48 1.09 80.1.64 132.06 0m-132.06 0h132.06m0 0c7.33.72 9.43 2.22 9.19 9.19m-9.19-9.19c3.88.17 10.93 1.74 9.19 9.19m0 0c.71 4.7.92 12.64 0 18.39m0-18.39c.28 4.91-.16 8.96 0 18.39m0 0c.12 6.84-4.47 8.09-9.19 9.19m9.19-9.19c-1.82 4.09-4.74 9.12-9.19 9.19m0 0c-31.1 1.25-63.32 2.1-132.06 0m132.06 0c-26.7.43-54.66-.66-132.06 0m0 0c-6.5-1.23-10.71-1.43-9.19-9.19m9.19 9.19c-8.09-1.61-7.66-1.09-9.19-9.19m0 0c-.32-5.41-.25-11.78 0-18.39m0 18.39c.75-4.22.07-7.44 0-18.39m0 0c-1.28-7.79 3.99-7.26 9.19-9.19m-9.19 9.19c.53-7.05.94-7.21 9.19-9.19" class="G H J"/><text x="913.262" y="3545.048" style="white-space:pre" class="B C D E I">143e</text><path d="M848.713 3570.136c33.78-2.49 64.42-3.08 132.44 0m-132.44 0c40.22-.68 79.29-1.77 132.44 0m0 0c6.15 1.52 7.85 3.74 9 9m-9-9c7.83-2 9.71 1.12 9 9m0 0c-.49 6.46.67 13.66 0 18m0-18c.42 4.55-.39 9.65 0 18m0 0c-1.77 4.54-3.07 7.89-9 9m9-9c-1.55 7.81-1.65 9.23-9 9m0 0c-47.44-1.4-93.97-.11-132.44 0m132.44 0c-46.27-1.01-90.5-1.1-132.44 0m0 0c-7.4 1.33-7.29-2.43-9-9m9 9c-7.56 1.11-9.56-2.22-9-9m0 0c.18-4.38 1.49-11.05 0-18m0 18c-.75-5.16.87-10.94 0-18m0 0c-.8-7.84 4.72-9.67 9-9m-9 9c-1.15-7.16 4.35-10.01 9-9" class="G H J"/><text x="914.934" y="3593.136" style="white-space:pre" class="B C D E I">4ba1</text><path d="M1013.553 3521.661c46.17 1.08 91.42.4 132.06 0m-132.06 0c39.9-.84 80.09-.73 132.06 0m0 0c5.57-1.52 9.49 2.94 9.19 9.19m-9.19-9.19c8.39-1.23 11.32 2.68 9.19 9.19m0 0c.34 6.49-.79 10.7 0 18.39m0-18.39c1.08 4.14.62 8.4 0 18.39m0 0c-.99 4.41-2.38 9.45-9.19 9.19m9.19-9.19c.28 7.41-4.3 8.26-9.19 9.19m0 0c-25.65 1.16-54.08-.45-132.06 0m132.06 0c-35.53-1.94-72.64-2.02-132.06 0m0 0c-7.17-1.42-8.96-2.45-9.19-9.19m9.19 9.19c-7.56-.16-10.55-1.12-9.19-9.19m0 0c-.49-4.16-.72-9.21 0-18.39m0 18.39c.4-4.84-.78-9.25 0-18.39m0 0c-.75-4.13 1.74-8.26 9.19-9.19m-9.19 9.19c.83-5.25 3.07-10.72 9.19-9.19" class="G H J"/><text x="1079.583" y="3545.048" style="white-space:pre" class="B C D E I">61ae</text><path d="M1015.034 3569.301c43.16-1.13 87.47.59 132.44 0m-132.44 0h132.44m0 0c7.59 1.95 9.12 4.73 9 9m-9-9c5.35-.06 9.64 3.88 9 9m0 0c-1.25 5.64.05 10.97 0 18m0-18c.11 4.73.3 7.2 0 18m0 0c-.98 6.91-3.83 8.05-9 9m9-9c.45 4.74-1.82 10.64-9 9m0 0c-39.06.02-80.81-1.37-132.44 0m132.44 0c-50.37-1.73-98.34-.49-132.44 0m0 0c-4.63 1.03-9.34-1.98-9-9m9 9c-8.2-1.61-9.52-2.68-9-9m0 0c.24-6.98-1.58-14.86 0-18m0 18c-.69-5.87-.53-12.17 0-18m0 0c-.81-4.41 4.4-10.19 9-9m-9 9c1.52-7.93 4.95-7.88 9-9" class="G H J"/><text x="1081.255" y="3592.301" style="white-space:pre" class="B C D E I">09bf</text><path d="M690.317 3400.622c32.65.84 66.02 1.6 102.89 0m-102.89 0h102.89m0 0c21.86.24 33.25 12.22 32 32m-32-32c22.01-.29 30.13 10.01 32 32m0 0c1.09 38.52-2.44 79.77 0 159.95m0-159.95v159.95m0 0c-.22 22.99-9.49 32.03-32 32m32-32c-1.08 22.16-11.68 32.68-32 32m0 0c-36.1 1.95-75.08 2.29-102.89 0m102.89 0c-37.88-.06-74.36-.43-102.89 0m0 0c-20.89 1.31-31.77-10.36-32-32m32 32c-22.86-2.16-33.69-9.87-32-32m0 0c-1.61-35.09.77-72.16 0-159.95m0 159.95c-1.04-45.21-.79-90.37 0-159.95m0 0c.81-20.8 9.12-32.95 32-32m-32 32c1.12-21.04 9.98-32.12 32-32" class="G H X"/><g transform="matrix(1 0 0 1 584.674097 3635.151738)" class="B C E I M"><text x="157.5" y="17.667" style="white-space:pre">Union +</text><text x="157.5" y="43.333" style="white-space:pre">Estimation</text><text x="157.5" y="69" style="white-space:pre">=</text><text x="157.5" y="94.667" style="white-space:pre">Nombre de personnes distinctes </text><text x="157.5" y="120.333" style="white-space:pre">ayant visité la page d'accueil </text><text x="157.5" y="146" style="white-space:pre">sur ces 4 jours</text></g><path d="M664.876 3409.277h492.67m-492.67 0h492.67m0 0c7.01 1.46 14.2 2.51 12.52 12.52m-12.52-12.52c7.8-.37 11.58 5.82 12.52 12.52m0 0c-1.06 4.88.32 12.19 0 25.05m0-25.05c.23 6.67.54 11.33 0 25.05m0 0c1.63 9.2-3.91 11.64-12.52 12.53m12.52-12.53c-.78 7.25-3.44 12.38-12.52 12.53m0 0h-492.67m492.67 0c-128.85 2.35-257.83 1.9-492.67 0m0 0c-8.39.95-12.69-5.44-12.52-12.53m12.52 12.53c-7.18-.58-13.19-5.91-12.52-12.53m0 0c.39-9.14 1.73-18.88 0-25.05m0 25.05c.01-7.24 1.05-14.65 0-25.05m0 0c-.12-9.72 5.55-12.07 12.52-12.52m-12.52 12.52c.12-9.63 5.65-14.81 12.52-12.52" class="G H V"/><g transform="matrix(1 0 0 1 1174.822763 3394.296432)" class="B C E I P"><text x="194.5" y="18.5" style="white-space:pre">Union + Estimation =</text><text x="194.5" y="44" style="white-space:pre">Nombres de personnes distinctes </text><text x="194.5" y="69.5" style="white-space:pre">ayant visité au moins une page du site</text><text x="194.5" y="95" style="white-space:pre">sur la journée du 03/04/23</text></g><path d="M684.807 3402.5h456.83m-456.83 0h456.83m0 0c22.77 1.77 32.41 8.81 32 32m-32-32c19.88.3 33.67 11.51 32 32m0 0c.57 43.16 1.78 87.7 0 157.11m0-157.11c1.36 39.06-.12 78.56 0 157.11m0 0c-.23 21.33-9.41 33.79-32 32m32-32c-.32 22.19-12.35 33.48-32 32m0 0c-154.2-.76-308.71-1.31-456.83 0m456.83 0c-115.78-.36-231.46-.81-456.83 0m0 0c-21.55.6-33.92-12.65-32-32m32 32c-20.45 1.88-31.11-10.17-32-32m0 0c-1.42-51.56-.28-103.99 0-157.11m0 157.11c-2.02-53.57-2.14-107.59 0-157.11m0 0c.6-21.54 10.95-30.07 32-32m-32 32c1.46-20.03 12.2-32.33 32-32" stroke="#1864ab" class="G H"/><g transform="matrix(1 0 0 1 1111.796505 3618.290588)" class="B C E I Q"><text x="194.5" y="18.5" style="white-space:pre">Union + Estimation =</text><text x="194.5" y="44" style="white-space:pre">Nombres de personnes distinctes </text><text x="194.5" y="69.5" style="white-space:pre">ayant visité au moins une page du site</text><text x="194.5" y="95" style="white-space:pre">sur ces 4 jours</text></g><path d="M497.097 2866.946h705.05m-705.05 0h705.05m0 0c18.8-.17 26.02 8.17 26.24 26.24m-26.24-26.24c19.23.89 26.76 6.54 26.24 26.24m0 0c-.94 16.49 1.49 28.27 0 52.48m0-52.48c-.5 11.48-.32 24.07 0 52.48m0 0c.68 16.64-7.23 27.2-26.24 26.24m26.24-26.24c-2.07 18.04-8.72 24.77-26.24 26.24m0 0c-174.45-1.01-349.54-.99-705.05 0m705.05 0h-705.05m0 0c-17.18 1.82-24.78-9.85-26.24-26.24m26.24 26.24c-17.68.28-27.06-10.55-26.24-26.24m0 0c.02-15.12 1.13-33.02 0-52.48m0 52.48c.33-15.06-.25-31.08 0-52.48m0 0c.54-19.17 7.97-24.64 26.24-26.24m-26.24 26.24c1.19-19.15 8.33-28.45 26.24-26.24" class="G H N V"/><text y="3889.553" style="white-space:pre" x="521.728" class="B E O P">Note :</text><g transform="matrix(1 0 0 1 668.395105 3866.219205)" class="B C E P"><text y="17.667" style="white-space:pre" x="0">L'union de deux sketches est simplement le max</text><text y="43.333" style="white-space:pre" x="0"> des registres des deux sketches deux à deux</text></g><g class="G H N"><path d="M511.782 3838.035h705.05m-705.05 0h705.05m0 0c19.07.56 25.25 7.87 26.24 26.24m-26.24-26.24c17.66.75 24.69 7.05 26.24 26.24m0 0c1.03 20.65 1.4 40.18 0 52.48m0-52.48c-.6 13.61-1.14 25.58 0 52.48m0 0c1.18 16-7.97 26.1-26.24 26.24m26.24-26.24c-.49 18.49-7.21 25-26.24 26.24m0 0h-705.05m705.05 0c-181.22-.71-361.93-1.07-705.05 0m0 0c-16.64-.39-26.37-7.35-26.24-26.24m26.24 26.24c-16.77-.17-26-7.39-26.24-26.24m0 0c.09-15.9-2.26-34 0-52.48m0 52.48c.92-13.79.42-29.62 0-52.48m0 0c1.05-16.6 9.51-24.39 26.24-26.24m-26.24 26.24c-.55-16.23 7.59-28.07 26.24-26.24" class="V"/><path d="M475.025 350.622h614.38m-614.38 0h614.38m0 0v356.17m0-356.17v356.17m0 0h-614.38m614.38 0h-614.38m0 0v-356.17m0 356.17v-356.17" class="Y"/></g><text x="401.992" y="490.251" style="white-space:pre" class="B C E I L">exemple :</text><text x="484.736" y="1142.083" style="white-space:pre" class="B C E I L">Exemple liste de tirages :</text><path d="M831.996 1200.082l-110.89 63.69m110.77-61.84l-112.2 59.38" class="G H N Y"/><path d="M720.746 1261.482l9.75-12.32 4.24 10.46-13.55 2.3" class="K L"/><path d="M719.236 1259.962c3.58-3.13 8.61-8.34 10.25-9.38m-10.33 10.77c3.27-4.03 6.48-7.81 9.26-12.62m-.3.7c2.87 2.33 5.09 7.96 5.38 12.22m-4.9-11.71c1.8 2.73 2.98 5.47 6.16 11.03m-.5.06c-4.58-1.02-10.03-1.16-13.4-.01m14.15.24c-5.52-.64-10.6-.39-15.48.58m.15-.53" class="G H N Y"/><g transform="matrix(1 0 0 1 804.884455 1103.009768)" class="B C E I L"><text x="197.5" y="18.5" style="white-space:pre">On observe un 000, </text><text x="197.5" y="44" style="white-space:pre">donc on peut estimer que </text><text x="197.5" y="69.5" style="white-space:pre">le nombre de tirages distincts est de 8</text></g></svg>